# xmcd
#
# Track frame offsets: 
#        150
#        19787
#        39582
#        53375
#        69307
#        90867
#        123540
#        140440
#        154755
#        176025
#        191737
#
# Disc length: 2739 seconds
#
# Revision: 6
# Processed by: cddbd v1.5.2PL0 Copyright (c) Steve Scherf et al.
# Submitted via: ExactAudioCopy v0.95b4
#
DISCID=890ab10b
DTITLE=Susan Tedeschi - Wait For Me
DYEAR=2002
DGENRE=Blues
TTITLE0=Alone
TTITLE1=Gonna Move
TTITLE2=Wrapped In The Arms Of Another
TTITLE3='Til I Found You
TTITLE4=Wait For Me
TTITLE5=The Feeling Music Brings
TTITLE6=In The Garden
TTITLE7=Hampmotized
TTITLE8=Don't Think Twice, It's All Right
TTITLE9=I Fell In Love
TTITLE10=Blues On A Holiday
EXTD=YEAR: 2002
EXTT0=
EXTT1=
EXTT2=
EXTT3=
EXTT4=
EXTT5=
EXTT6=
EXTT7=
EXTT8=
EXTT9=
EXTT10=
PLAYORDER=
